<?xml version="1.0" encoding="UTF-8"?>
<svg data-name="Layer 1" viewBox="0 0 886.35 491.63" xmlns="http://www.w3.org/2000/svg">
<title>navigator</title>
<circle cx="232.4" cy="103.25" r="50.763" fill="#ff6584"/>
<path transform="translate(-156.82 -204.18)" d="m548.41 463.86h-249.03a5.0794 5.0794 0 0 1-0.93059-0.07373l117.78-204.01a8.2465 8.2465 0 0 1 14.355 0l79.044 136.91 3.7868 6.5509z" fill="#3f3d56"/>
<polygon points="391.58 259.68 306.56 259.68 348.3 199.05 351.3 194.68 352.8 192.5 356.59 199.05" opacity=".2"/>
<path transform="translate(-156.82 -204.18)" d="m687.06 463.86h-215.39l41.738-60.626 3.0036-4.3673 54.388-79.007c3.5657-5.1781 12.144-5.5005 16.336-0.97665a9.8299 9.8299 0 0 1 0.7832 0.97665z" fill="#3f3d56"/>
<circle cx="593.46" cy="210.82" r="15.296" fill="#34b935"/>
<polygon points="594.94 256.89 591.8 256.89 593.23 208.52" fill="#3f3d56"/>
<polygon points="593.51 217.68 596.87 213.03 593.46 218.84 593.1 218.19" fill="#3f3d56"/>
<polygon points="593.14 222.38 589.78 217.73 593.19 223.54 593.56 222.89" fill="#3f3d56"/>
<circle cx="733.78" cy="210.82" r="15.296" fill="#34b935"/>
<polygon points="735.25 256.89 732.12 256.89 733.55 208.52" fill="#3f3d56"/>
<polygon points="733.83 217.68 737.19 213.03 733.78 218.84 733.41 218.19" fill="#3f3d56"/>
<polygon points="733.46 222.38 730.09 217.73 733.5 223.54 733.87 222.89" fill="#3f3d56"/>
<circle cx="637.77" cy="188.85" r="22.592" fill="#34b935"/>
<polygon points="639.95 256.89 635.32 256.89 637.43 185.44" fill="#3f3d56"/>
<polygon points="637.84 198.98 642.81 192.11 637.78 200.69 637.23 199.73" fill="#3f3d56"/>
<polygon points="637.3 205.93 632.33 199.05 637.37 207.63 637.91 206.68" fill="#3f3d56"/>
<circle cx="692.87" cy="188.85" r="22.592" fill="#34b935"/>
<polygon points="695.05 256.89 690.42 256.89 692.53 185.44" fill="#3f3d56"/>
<polygon points="692.94 198.98 697.9 192.11 692.87 200.69 692.32 199.73" fill="#3f3d56"/>
<polygon points="692.39 205.93 687.42 199.05 692.46 207.63 693 206.68" fill="#3f3d56"/>
<circle cx="549.97" cy="188.85" r="22.592" fill="#34b935"/>
<polygon points="552.15 256.89 547.52 256.89 549.63 185.44" fill="#3f3d56"/>
<polygon points="550.04 198.98 555 192.11 549.97 200.69 549.42 199.73" fill="#3f3d56"/>
<polygon points="549.49 205.93 544.52 199.05 549.56 207.63 550.1 206.68" fill="#3f3d56"/>
<path transform="translate(-156.82 -204.18)" d="m974.07 695.82h-737.27a70.734 70.734 0 1 1 0-141.47h735.63a27.205 27.205 0 0 0 0-54.411h-760.12v-43.529h760.12a70.734 70.734 0 1 1 0 141.47h-735.63a27.205 27.205 0 1 0 0 54.411h737.27z" fill="#e6e6e6"/>
<rect x="82.704" y="272.9" width="33.735" height="2.1764" fill="#fff"/>
<rect x="178.47" y="272.9" width="33.735" height="2.1764" fill="#fff"/>
<rect x="274.23" y="272.9" width="33.735" height="2.1764" fill="#fff"/>
<rect x="369.99" y="272.9" width="33.735" height="2.1764" fill="#fff"/>
<rect x="465.76" y="272.9" width="33.735" height="2.1764" fill="#fff"/>
<rect x="561.52" y="272.9" width="33.735" height="2.1764" fill="#fff"/>
<rect x="657.28" y="272.9" width="33.735" height="2.1764" fill="#fff"/>
<rect x="753.04" y="272.9" width="33.735" height="2.1764" fill="#fff"/>
<rect x="82.704" y="370.84" width="33.735" height="2.1764" fill="#fff"/>
<rect x="178.47" y="370.84" width="33.735" height="2.1764" fill="#fff"/>
<rect x="274.23" y="370.84" width="33.735" height="2.1764" fill="#fff"/>
<rect x="369.99" y="370.84" width="33.735" height="2.1764" fill="#fff"/>
<rect x="465.76" y="370.84" width="33.735" height="2.1764" fill="#fff"/>
<rect x="561.52" y="370.84" width="33.735" height="2.1764" fill="#fff"/>
<rect x="657.28" y="370.84" width="33.735" height="2.1764" fill="#fff"/>
<rect x="753.04" y="370.84" width="33.735" height="2.1764" fill="#fff"/>
<rect x="82.704" y="468.78" width="33.735" height="2.1764" fill="#fff"/>
<rect x="178.47" y="468.78" width="33.735" height="2.1764" fill="#fff"/>
<rect x="274.23" y="468.78" width="33.735" height="2.1764" fill="#fff"/>
<rect x="369.99" y="468.78" width="33.735" height="2.1764" fill="#fff"/>
<rect x="465.76" y="468.78" width="33.735" height="2.1764" fill="#fff"/>
<rect x="561.52" y="468.78" width="33.735" height="2.1764" fill="#fff"/>
<rect x="657.28" y="468.78" width="33.735" height="2.1764" fill="#fff"/>
<rect x="753.04" y="468.78" width="33.735" height="2.1764" fill="#fff"/>
<path transform="translate(-156.82 -204.18)" d="m732.01 298.88a28.992 28.992 0 0 0-6.0451-5.7035h12.624a21.114 21.114 0 0 0-6.5787 5.7035z" fill="none"/>
<path transform="translate(-156.82 -204.18)" d="m690.74 293.18h2.1762c-0.46752 0.32845-0.93648 0.65539-1.3831 1.0104-0.25489-0.34455-0.52702-0.675-0.79309-1.0104z" fill="none"/>
<path transform="translate(-156.82 -204.18)" d="m748.69 290.56a20.833 20.833 0 0 1 10.129 2.6174h-20.232a20.742 20.742 0 0 1 10.103-2.6174z" fill="#e6e6e6"/>
<path transform="translate(-156.82 -204.18)" d="m709.43 287.94a28.623 28.623 0 0 1 16.534 5.2348h-33.046a28.616 28.616 0 0 1 16.512-5.2348z" fill="#e6e6e6"/>
<path transform="translate(-156.82 -204.18)" d="m487.04 254.81a53.656 53.656 0 0 1 105.27-11.313c0.65-0.02332 1.2995-0.04944 1.9552-0.04944a53.669 53.669 0 0 1 51.482 38.538 37.92 37.92 0 0 1 44.995 11.192h-167.37a36.293 36.293 0 0 1-36.373-37.577q0.0161-0.39512 0.03794-0.79138z" fill="#e6e6e6"/>
<path transform="translate(-156.82 -204.18)" d="m777.59 338.06a28.992 28.992 0 0 1 6.0451-5.7035h-12.624a21.114 21.114 0 0 1 6.5787 5.7035z" fill="none"/>
<path transform="translate(-156.82 -204.18)" d="m818.85 332.35h-2.1762c0.46752 0.32845 0.93647 0.65539 1.3831 1.0104 0.25486-0.34451 0.527-0.67496 0.7931-1.0104z" fill="none"/>
<path transform="translate(-156.82 -204.18)" d="m760.91 329.73a20.833 20.833 0 0 0-10.129 2.6174h20.232a20.742 20.742 0 0 0-10.103-2.6174z" fill="#e6e6e6"/>
<path transform="translate(-156.82 -204.18)" d="m800.17 327.12a28.623 28.623 0 0 0-16.534 5.2348h33.046a28.616 28.616 0 0 0-16.512-5.2348z" fill="#e6e6e6"/>
<path transform="translate(-156.82 -204.18)" d="m1022.6 293.98a53.656 53.656 0 0 0-105.27-11.313c-0.65-0.02333-1.2995-0.04945-1.9552-0.04945a53.669 53.669 0 0 0-51.482 38.538 37.92 37.92 0 0 0-44.995 11.192h167.37a36.293 36.293 0 0 0 36.373-37.577q-0.01614-0.39507-0.03799-0.79134z" fill="#e6e6e6"/>
<rect transform="translate(1684.2 1124) rotate(180.03)" x="910.98" y="662.31" width="19.453" height="3.0877" fill="#3f3d56"/>
<path transform="translate(-156.82 -204.18)" d="m770.33 663.01 4.0135 0.92846 152.53 0.08154 1.3716-3.1957a32.257 32.257 0 0 0 2.3715-17.442c-0.65694-4.4136-2.3032-8.7991-6.0421-10.704l-6.7689-45.084-84.389-0.151-32.65 26.334s-15.401-0.27686-23.768 10.14a24.45 24.45 0 0 0-5.1143 13.466l-0.33022 5.4188z" fill="#34b935"/>
<circle cx="647.01" cy="458.07" r="18.835" fill="#3f3d56"/>
<circle cx="647.01" cy="458.07" r="9.9132" fill="#ccc"/>
<circle cx="739.95" cy="458.12" r="18.835" fill="#3f3d56"/>
<circle cx="739.95" cy="458.12" r="9.9132" fill="#ccc"/>
<polygon points="656.92 406.51 702.48 406.53 708.04 406.53 717.44 406.54 717.44 405.85 717.44 397.59 717.45 388.32 711.2 388.32 705.64 388.32 695.79 388.31 690.22 388.31 678.85 388.3" fill="#fff"/>
<polygon points="724.85 406.54 748.93 406.56 748.94 401.83 748.94 393.57 748.94 388.34 745.42 388.34 739.85 388.34 724.86 388.33" fill="#fff"/>
<rect transform="translate(1588.3 1050.8) rotate(180.03)" x="871.16" y="624.31" width="3.0877" height="5.8667" fill="#3f3d56"/>
<rect transform="translate(1284.3 -409.52) rotate(90.031)" x="821.61" y="614.56" width="3.0877" height="5.8667" fill="#3f3d56"/>
<path transform="translate(1483.9 1018) rotate(180.03)" d="m817.14 604.4h0.33966a6.4533 6.4533 0 0 1 6.4533 6.4533 6.4533 6.4533 0 0 1-6.4533 6.4533h-0.33966v-12.907z" fill="#3f3d56"/>
<path transform="translate(-156.82 -204.18)" d="m771.56 642.8a9.9747 9.9747 0 0 0 5.4445-18.885 24.45 24.45 0 0 0-5.1143 13.466z" fill="#3f3d56"/>
<polygon points="705.64 388.32 717.44 405.85 717.44 397.59 711.2 388.32" fill="#f2f2f2"/>
<polygon points="739.85 388.34 748.94 401.83 748.94 393.57 745.42 388.34" fill="#f2f2f2"/>
<polygon points="690.22 388.31 702.48 406.53 708.04 406.53 695.79 388.31" fill="#f2f2f2"/>
<circle cx="50.058" cy="260.93" r="50.058" fill="#3f3d56"/>
<path transform="translate(-156.82 -204.18)" d="m207.09 480.18-25.051-25.051a4.3532 4.3532 0 0 1 6.1563-6.1563l18.478 18.478 58.964-67.239a4.3527 4.3527 0 0 1 6.5452 5.7397z" fill="#34b935"/>
</svg>
