<?xml version="1.0" encoding="UTF-8"?>
<svg data-name="Layer 1" viewBox="0 0 939 727" xmlns="http://www.w3.org/2000/svg">
<path transform="translate(-130.5 -86.5)" d="m957.9 499.12 20.534-20.545a365.61 365.61 0 0 0-7.9003-40.446l-11.703 5.9238 10.513-10.519c-4.3576-16.432-8.2837-27.038-8.2837-27.038s-41.383 42.144-62.771 91.564l13.252 34.839-18.132-22.396a147.92 147.92 0 0 0-5.0841 17.88c-13.086 61.151-3.7232 115 20.913 120.27s55.216-40.026 68.302-101.18c4.0569-18.957 4.0125-39.709 2.0226-59.321z" fill="#e6e6e6"/>
<path transform="translate(-130.5 -86.5)" d="m1018.9 541.79 28.198-6.9735a365.61 365.61 0 0 0 14.144-38.707l-13.08-0.97806 14.437-3.5704c4.7636-16.319 6.8849-27.428 6.8849-27.428s-57.21 14.687-101.06 45.937l-6.6638 36.674-3.9449-28.544a147.92 147.92 0 0 0-13.594 12.678c-42.811 45.583-62.629 96.518-44.265 113.77s67.957-5.7229 110.77-51.306c13.272-14.131 23.96-31.918 32.395-49.736z" fill="#e6e6e6"/>
<path transform="translate(-130.5 -86.5)" d="m749.8 288.48 6.9273-54.369a689.87 689.87 0 0 0-58.486-51.244l-10.627 22.352 3.5469-27.837c-25.475-19.494-43.579-30.791-43.579-30.791s-13.108 110.68 12.026 209.13l60 36.697-52.917-12.493a279.11 279.11 0 0 0 13.055 32.555c51.067 106.37 127.21 175.93 170.06 155.36s36.199-123.49-14.867-229.86c-15.831-32.977-39.855-63.897-65.467-90.871z" fill="#e6e6e6"/>
<path transform="translate(-130.5 -86.5)" d="m890.14 281.72 34.034-42.962a689.88 689.88 0 0 0-23.578-74.099l-20.651 13.641 17.425-21.996c-11.731-29.856-21.39-48.884-21.39-48.884s-68.429 87.968-97.804 185.24l32.394 62.428-38.842-38.048a279.11 279.11 0 0 0-5.6526 34.617c-11.269 117.46 17.956 216.36 65.277 220.9s94.818-86.997 106.09-204.45c3.4936-36.413-1.089-75.299-9.0716-111.63z" fill="#e6e6e6"/>
<path transform="translate(-130.5 -86.5)" d="m262.73 296.47-3.4427-57.048a719.36 719.36 0 0 0-69.857-41.165l-6.5548 24.961-1.7626-29.208c-29.879-15.034-50.618-23.099-50.618-23.099s8.0261 115.93 52.863 211.93l68.588 25.967-56.639-2.5411a291.04 291.04 0 0 0 19.687 30.824c72.943 99.087 164.44 155.59 204.36 126.2s13.149-133.54-59.794-232.62c-22.613-30.718-53.221-57.74-84.692-80.411z" fill="#e6e6e6"/>
<path transform="translate(-130.5 -86.5)" d="m405.21 262.34 26.541-50.615a719.36 719.36 0 0 0-38.522-71.348l-18.513 17.979 13.589-25.915c-17.807-28.315-31.392-45.938-31.392-45.938s-53.056 103.39-64.295 208.75l45.292 57.682-47.172-31.452a291.03 291.03 0 0 0 0.91954 36.563c11.224 122.53 60.341 218.19 109.7 213.67s80.281-107.52 69.057-230.04c-3.4797-37.985-15.714-76.938-30.935-112.61z" fill="#e6e6e6"/>
<ellipse cx="423.19" cy="678" rx="35" ry="10" fill="#e6e6e6"/>
<ellipse cx="804.19" cy="717" rx="35" ry="10" fill="#e6e6e6"/>
<ellipse cx="877.19" cy="635" rx="35" ry="10" fill="#e6e6e6"/>
<ellipse cx="733.69" cy="608.43" rx="26.5" ry="7.5714" fill="#e6e6e6"/>
<ellipse cx="159.69" cy="603.43" rx="17.5" ry="5.4286" fill="#e6e6e6"/>
<ellipse cx="90.693" cy="664.43" rx="17.5" ry="5.4286" fill="#e6e6e6"/>
<ellipse cx="90.693" cy="568.43" rx="17.5" ry="5.4286" fill="#e6e6e6"/>
<path transform="translate(-130.5 -86.5)" d="m970.56 672.45-169.56-6-89.42 8.53-152.77 14.57-57.49 5.48-133.14 44.4a2.9799 2.9799 0 0 1-3.73-3.88l0.01-0.01 23.09-61.07-2.43-1.79-63.54-46.69-0.34-0.25-82.39-12.56a6.9091 6.9091 0 0 1-4.62-10.78l125.48-180.06 65.94-94.6 7.15-10.27 274.3-3.79 267.81 350.35a5.2408 5.2408 0 0 1-4.35 8.42z" fill="#34b935"/>
<polygon points="366.56 245.59 254.62 586.18 191.09 539.5 229.22 335.85 294.97 241.02 295.15 241.24" opacity=".2"/>
<path transform="translate(-130.5 -86.5)" d="m397.14 462.56c-12.701 30.534-17.198 56.037-32.263 51.432-20.626-6.305 1.0306-28.607 13.732-59.14s21.676-53.955 32.263-51.432c19.739 4.7052-1.0306 28.607-13.732 59.14z" fill="#3f3d56"/>
<path transform="translate(-130.5 -86.5)" d="m425.92 401.45a15.388 15.388 0 0 0-15.412-15.363c-0.3471 5.6e-4 -0.69041 0.01676-1.0318 0.03993l-14.521-1.7914a15.356 15.356 0 0 0-5.1916-0.89132c-0.48854 7.9e-4 -0.97084 0.027-1.4477 0.07224l-0.55938-0.069-0.015 0.13653a15.388 15.388 0 0 0-3.2515 29.698l-0.03026 0.27682 1.4285 0.16a15.406 15.406 0 0 0 3.9248 0.50044c0.14684-2.3e-4 0.292-0.00745 0.43789-0.01177l14.844 1.6627a15.346 15.346 0 0 0 5.4622 0.99187 15.506 15.506 0 0 0 2.0795-0.14717l1.2657 0.14179 0.00765-0.37088a15.39 15.39 0 0 0 12.01-15.036z" fill="#34b935"/>
<path transform="translate(-130.5 -86.5)" d="m425.92 401.45a15.388 15.388 0 0 0-15.412-15.363c-0.3471 5.6e-4 -0.69041 0.01676-1.0318 0.03993l-14.521-1.7914a15.356 15.356 0 0 0-5.1916-0.89132c-0.48854 7.9e-4 -0.97084 0.027-1.4477 0.07224l-0.55938-0.069-0.015 0.13653a15.388 15.388 0 0 0-3.2515 29.698l-0.03026 0.27682 1.4285 0.16a15.406 15.406 0 0 0 3.9248 0.50044c0.14684-2.3e-4 0.292-0.00745 0.43789-0.01177l14.844 1.6627a15.346 15.346 0 0 0 5.4622 0.99187 15.506 15.506 0 0 0 2.0795-0.14717l1.2657 0.14179 0.00765-0.37088a15.39 15.39 0 0 0 12.01-15.036z" fill="#fff" opacity=".2"/>
<path transform="translate(-130.5 -86.5)" d="m220.41 611.65-1.7773-0.93275c45.525-86.769 174.28-272.16 175.58-274.02l1.6483 1.146c-1.2946 1.8615-129.98 187.15-175.45 273.81z" fill="#3f3d56"/>
<path transform="translate(-130.5 -86.5)" d="m359.86 741.69-1.9361-0.5274c0.93789-3.448 94.186-345.49 126.56-403.19l1.75 0.98179c-32.255 57.486-125.44 399.29-126.38 402.73z" fill="#3f3d56"/>
<path transform="translate(-130.5 -86.5)" d="m982.81 675.37c-49.712-81.892-237.45-335.52-239.34-338.07l1.6132-1.1943c1.891 2.5529 189.68 256.25 239.44 338.22z" fill="#3f3d56"/>
<ellipse transform="translate(-131.69 -85.926) rotate(-.09218)" cx="356.23" cy="741.76" rx="7.0248" ry="9.032" fill="#3f3d56"/>
<ellipse transform="translate(-131.47 -86.144) rotate(-.09218)" cx="220.85" cy="606.5" rx="7.0248" ry="9.032" fill="#3f3d56"/>
<ellipse transform="translate(-131.58 -84.915) rotate(-.09218)" cx="984.65" cy="670.85" rx="7.0248" ry="9.032" fill="#3f3d56"/>
<path transform="translate(-130.5 -86.5)" d="m386.41 346.66 378.62 4.0571a117.21 117.21 0 0 0-117.27-116.22l-144.5 0.23247c-60.439 0.09723-111.62 47.362-116.51 107.6z" fill="#3f3d56"/>
<path transform="translate(-130.5 -86.5)" d="m719.08 471.81h-138.38a12.719 12.719 0 0 0-12.73 12.88l0.12 10.12 1.23 108.34 0.02 2.09 0.04 3.45 0.04 3.37 0.23 20.31a12.739 12.739 0 0 0 12.46 12.59c0.34 0 0.69-0.01 1.04-0.03l32.86-2 47.54-2.9 16.78-1.02 3.74-0.23005 26.15-1.59h0.01l9.62-0.59a12.75 12.75 0 0 0 11.96-12.71v-139.35a12.744 12.744 0 0 0-12.73-12.73z" opacity=".2"/>
<path transform="translate(-130.5 -86.5)" d="m747.58 454.12a3.4012 3.4012 0 0 0-2.519 1.4442l-15.247 0.02453v-4.0437a12.744 12.744 0 0 0-12.73-12.73h-138.38a12.719 12.719 0 0 0-12.73 12.88l0.04931 4.1572-9.8336 0.01581a3.0433 3.0433 0 0 0-2.0651-0.95678c-3.4465 0.00555-6.2284 7.5323-6.2135 16.811s2.821 16.797 6.2676 16.791a3.7659 3.7659 0 0 0 2.8884-1.9249l188.04-0.30249a3.401 3.401 0 0 0 2.5237 1.436c3.4465-0.00549 6.2284-7.5323 6.2135-16.811s-2.821-16.797-6.2676-16.791z" fill="#34b935"/>
<path transform="translate(-130.5 -86.5)" d="m747.58 454.12a3.4012 3.4012 0 0 0-2.519 1.4442l-15.247 0.02453v-4.0437a12.744 12.744 0 0 0-12.73-12.73h-138.38a12.719 12.719 0 0 0-12.73 12.88l0.04931 4.1572-9.8335 0.01581a3.0434 3.0434 0 0 0-2.0651-0.95678c-3.4465 0.00555-6.2284 7.5323-6.2135 16.811s2.821 16.797 6.2676 16.791a3.766 3.766 0 0 0 2.8884-1.9249l188.04-0.30249a3.401 3.401 0 0 0 2.5237 1.436c3.4465-0.00549 6.2284-7.5323 6.2135-16.811s-2.8211-16.797-6.2676-16.791z" fill="#fff" opacity=".2"/>
<path transform="translate(-130.5 -86.5)" d="m732.09 666.56a8.1334 8.1334 0 0 1-12.77-2.1825l-7.5233-14.445 2.9931-6.485 16.128 10.322a8.1334 8.1334 0 0 1 1.172 12.79z" fill="#ffb8b8"/>
<path transform="translate(-130.5 -86.5)" d="m764.59 750.83a6.7355 6.7355 0 0 0-6.7907-6.0183 6.82 6.82 0 0 0-6.6626 5.1654l-6.6626 32.354a13.088 13.088 0 0 0-0.34045 2.8847c0 7.2959 6.1062 12.366 13.666 12.366s13.669-5.0702 13.669-12.366a13.237 13.237 0 0 0-0.47225-3.4594z" fill="#3f3d56"/>
<path transform="translate(-130.5 -86.5)" d="m814.99 765.31a15.294 15.294 0 0 0-2.1782-1.5924l-25.453-17.788c-2.4783-1.5558-5.1251-1.5119-7.047 0.36608a4.953 4.953 0 0 0-0.73216 6.2965l19.219 25.259a13.388 13.388 0 0 0 1.4643 1.7169c3.3313 3.723 10.719 3.928 14.779 0 4.0049-3.9939 3.9574-11.11-0.05124-14.259z" fill="#3f3d56"/>
<path transform="translate(-130.5 -86.5)" d="m834.11 738.96h-25.779a3.1351 3.1351 0 0 0-3.2508 2.9872 3.4079 3.4079 0 0 0 2.5333 3.3533l24.319 7.5229c3.5326 0.82367 8.2916-2.3246 8.2916-6.2563 0-5.0006-2.7822-7.6071-6.1135-7.6071z" fill="#3f3d56"/>
<path transform="translate(-130.5 -86.5)" d="m711.45 741.93a3.2008 3.2008 0 0 0-3.4594-2.9872h-25.779c-3.2471 0-5.9854 3.507-5.9854 7.4387s4.6199 7.263 8.1635 6.4393l24.685-7.5229a3.097 3.097 0 0 0 2.3759-3.3679z" fill="#3f3d56"/>
<path transform="translate(-130.5 -86.5)" d="m729.14 745.95-25.461 17.711a11.839 11.839 0 0 0-2.1965 1.5924 9.6388 9.6388 0 0 0-0.49354 13.622q0.23775 0.25561 0.49354 0.49354a10.759 10.759 0 0 0 14.775 0 11.258 11.258 0 0 0 1.4643-1.7132l19.234-25.117a4.8275 4.8275 0 0 0-0.73215-6.2453 5.4912 5.4912 0 0 0-7.0836-0.34412z" fill="#3f3d56"/>
<path transform="translate(-130.5 -86.5)" d="m768.74 711.34a2.7347 2.7347 0 0 0 0.47225-1.4702c0-3.1007-6.1098-5.2554-13.669-5.2554s-13.666 2.1548-13.666 5.2554a2.6173 2.6173 0 0 0 0.34045 1.226l6.6626 13.75c0.76335 1.2973 3.5161 2.2043 6.6626 2.1952 3.5473 0 6.4942-1.1217 6.7908-2.5577z" fill="#3f3d56"/>
<path transform="translate(-130.5 -86.5)" d="m812.79 712.28c-4.0598-1.6694-11.447-1.5822-14.779 0a11.986 11.986 0 0 0-1.4643 0.72966l-19.219 10.735c-1.3068 0.85025-0.99886 1.9758 0.73215 2.6759a11.499 11.499 0 0 0 7.047 0.15558l25.453-7.5595a21.702 21.702 0 0 0 2.1782-0.67676c4.0086-1.338 4.0562-4.3624 0.05125-6.0598z" fill="#3f3d56"/>
<path transform="translate(-130.5 -86.5)" d="m837.98 726.3c0-1.6709-4.759-3.0089-8.2917-2.6588l-24.319 3.1971c-1.4533 0.2038-2.5333 0.67676-2.5333 1.4251s1.5851 1.2695 3.2508 1.2695h25.779c3.3313 0 6.1135-1.1077 6.1135-3.2329z" fill="#3f3d56"/>
<path transform="translate(-130.5 -86.5)" d="m706.82 726.84-24.685-3.1971c-3.5436-0.35-8.1635 1.0657-8.1635 2.7366s2.7383 3.1613 5.9854 3.1613h25.779c1.7938 0 3.4594-0.49163 3.4594-1.2695s-0.76877-1.2275-2.3758-1.4313z" fill="#3f3d56"/>
<path transform="translate(-130.5 -86.5)" d="m733.97 726.41c1.8011-0.711 2.0134-1.786 0.73216-2.6542l-19.234-10.674a10.097 10.097 0 0 0-1.4643-0.7281 22.485 22.485 0 0 0-14.775 0q-0.25561 0.101-0.49353 0.20975c-3.6254 1.6566-3.4045 4.2486 0.49353 5.7893a16.885 16.885 0 0 0 2.1965 0.67676l25.461 7.5268a11.634 11.634 0 0 0 7.0836-0.14625z" fill="#3f3d56"/>
<path transform="translate(-130.5 -86.5)" d="m807.98 709.12c0 39.763-22.161 40.498-49.498 40.498s-72.218-7.8662-49.498-40.498c23.964-34.417 65.074-100.02 49.498-103.5 0 0 49.498 63.733 49.498 103.5z" fill="#f9a825"/>
<path transform="translate(-130.5 -86.5)" d="m775.91 733.58c0 15.739-8.772 16.031-19.593 16.031s-28.586-3.1137-19.593-16.031c9.4857-13.624 25.759-39.592 19.593-40.967-4e-5 0 19.593 25.227 19.593 40.967z" fill="#ff6584" opacity=".5"/>
<path transform="translate(-130.5 -86.5)" d="m731.81 616.78v7.11a12.75 12.75 0 0 1-11.96 12.71l-136.7 8.33a12.722 12.722 0 0 1-13.5-12.56l-0.33-29.22 82.69-1.34z" fill="#3f3d56"/>
<path transform="translate(-130.5 -86.5)" d="m709.52 652-61.671-32.031a2.2578 2.2578 0 0 1-1.1507-1.4599l-13.378-53.918a12.942 12.942 0 0 1 8.2859-15.332l3.2229-1.128a5.5621 5.5621 0 0 1 7.1967 3.7612l13.186 47.469a2.2579 2.2579 0 0 0 0.73491 1.1343l50.248 41.634a2.2578 2.2578 0 0 1 0.42286 3.0135l-4.1928 6.128a2.2578 2.2578 0 0 1-2.904 0.72871z" fill="#e6e6e6"/>
<path transform="translate(-130.5 -86.5)" d="m668.9 568.12c-29.911-15.747-61.221-23.655-94.781-18.956 10.116-17.145 17.629-32.996 17.127-44.862a23.357 23.357 0 0 1 9.1634-19.898 28.355 28.355 0 0 1 16.899-5.5769 23.221 23.221 0 0 1 17.2-0.68383 18.086 18.086 0 0 1 10.49 10.388c1.1474 2.7796 3.6173 5.2146 7.2002 7.3597a20.205 20.205 0 0 1 7.796 8.1448c2.36 4.6971 2.5225 9.4253-0.57055 14.2 11.582 12.167 11.614 30.451 9.4754 49.885z" fill="#2f2e41"/>
<circle cx="496" cy="421.26" r="20.952" fill="#ffb8b8"/>
<path transform="translate(-130.5 -86.5)" d="m636.47 553.16-24.443 2.4942c1.3115-14.292 1.8279-27.479 0-37.413h24.443c-4.6423 15.816-4.235 27.089 0 34.919z" fill="#ffb8b8"/>
<path transform="translate(-130.5 -86.5)" d="M649.56443,552.61442q-.03,3.285-.14,6.5c-.51,15.34-2.44,29.15-7.7,39.32a35.33535,35.33535,0,0,1-3.81,5.95.175.175,0,0,1-.04.05,3.86448,3.86448,0,0,1-.33.4,28.29628,28.29628,0,0,1-3.57,3.69l-10.01,10.5-.46.48005-2.92,1.95-15.04,10.02-36.12-19.41-.04-3.37-.04-3.45c8.03-11.38,13.04-26.18,16.22-43.03.87-4.61,1.61-9.38,2.24-14.28.43-3.39.81-6.85,1.14-10.36a5.53476,5.53476,0,0,1,1.05-2.99.00976.00976,0,0,1,.01-.01c1.54-1.96,4.6-1.92,8.3-2.12,5.19-.28,10.3-2.97,14.89-.43006a2.69536,2.69536,0,0,1,.33.18006l13.47,14.96,6.19-6.67.29-.31,12.75,5.46a5.88655,5.88655,0,0,1,3.34,6.97Z" fill="#e6e6e6"/>
<path transform="translate(-130.5 -86.5)" d="m621.13 626.14a20.23 20.23 0 0 1-1.42 7.45l-3.7 9.34-32.86 2c-0.35 0.02-0.7 0.03-1.04 0.03a12.739 12.739 0 0 1-12.46-12.59l-0.23-20.31-0.04-3.37 11.96 5.07 11.66-6.26a17.449 17.449 0 0 1 1.95-0.7 18.754 18.754 0 0 1 2.64-0.63h0.01c0.43-0.07 0.86005-0.13 1.29-0.17a20.211 20.211 0 0 1 13.91 3.77 19.945 19.945 0 0 1 5.71 6.42 4.7452 4.7452 0 0 1 0.29 0.54 19.512 19.512 0 0 1 1.78 4.72 20.458 20.458 0 0 1 0.55 4.69z" fill="#2f2e41"/>
<polygon points="481.28 479.87 485.65 499.93 512.21 522.78 488.76 498.83" opacity=".2"/>
<polygon points="456.84 489.35 464.82 521.78 488.26 530.26 466.31 519.28" opacity=".2"/>
<path transform="translate(-130.5 -86.5)" d="m651.69 509.01c-15.442-7.1043-32.899-9.1298-48.388-1.4965l1.9954-17.958 33.921-5.4873z" fill="#2f2e41"/>
<polygon points="645.32 580.31 531.77 560.81 533.16 553.95 645.32 580.31" fill="#3f3d56"/>
<path transform="translate(-130.5 -86.5)" d="m681.21 651.59a8.1334 8.1334 0 0 1-12.77-2.1825l-7.5232-14.445 2.9931-6.485 16.128 10.322a8.1334 8.1334 0 0 1 1.172 12.79z" fill="#ffb8b8"/>
<path transform="translate(-130.5 -86.5)" d="m658.64 637.04-61.671-32.031a2.2578 2.2578 0 0 1-1.1507-1.4599l-13.378-53.918a12.942 12.942 0 0 1 8.2859-15.332l3.2229-1.128a5.5621 5.5621 0 0 1 7.1967 3.7612l13.186 47.469a2.2578 2.2578 0 0 0 0.73491 1.1343l50.248 41.634a2.2578 2.2578 0 0 1 0.42286 3.0135l-4.1928 6.128a2.2578 2.2578 0 0 1-2.9041 0.72871z" fill="#e6e6e6"/>
<path transform="translate(-130.5 -86.5)" d="m763.58 670.37a2.105 2.105 0 0 0 2.4668-1.6455l1.1377-5.6943a2.0964 2.0964 0 0 0-1.6445-2.4668l-16.481-3.2949a2.1013 2.1013 0 0 0-2.4668 1.6455l-1.1377 5.6943a2.0964 2.0964 0 0 0 1.6445 2.4668z" fill="#e6e6e6"/>
</svg>
